<?xml version="1.0" encoding="UTF-8"?>
<svg xmlns="http://www.w3.org/2000/svg" width="512" height="512" viewBox="0 0 512 512">
  <defs>
    <linearGradient id="background" x1="88" y1="64" x2="424" y2="448" gradientUnits="userSpaceOnUse">
      <stop offset="0" stop-color="#5cc8ff"/>
      <stop offset="1" stop-color="#1679c5"/>
    </linearGradient>
    <linearGradient id="tile" x1="144" y1="128" x2="368" y2="384" gradientUnits="userSpaceOnUse">
      <stop offset="0" stop-color="#ffffff"/>
      <stop offset="1" stop-color="#e8f3fa"/>
    </linearGradient>
  </defs>

  <rect x="32" y="32" width="448" height="448" rx="104" fill="url(#background)"/>
  <path d="M120 102h272a18 18 0 0 1 18 18v272a18 18 0 0 1-18 18H120a18 18 0 0 1-18-18V120a18 18 0 0 1 18-18z"
        fill="#095c9d" opacity=".25"/>

  <g fill="url(#tile)">
    <rect x="120" y="120" width="120" height="120" rx="24"/>
    <rect x="256" y="120" width="136" height="120" rx="24"/>
    <rect x="120" y="256" width="120" height="136" rx="24"/>
    <rect x="256" y="256" width="136" height="136" rx="24"/>
  </g>

  <circle cx="180" cy="180" r="28" fill="#f47721"/>
  <path d="M296 160h56M296 180h32M296 200h56" fill="none" stroke="#6b57a5" stroke-width="16" stroke-linecap="round"/>
  <path d="M148 346l24-32 25 19 23-37" fill="none" stroke="#2eaa66" stroke-width="16" stroke-linecap="round" stroke-linejoin="round"/>
  <g fill="#1679c5">
    <circle cx="296" cy="296" r="12"/>
    <circle cx="352" cy="296" r="12"/>
    <circle cx="296" cy="352" r="12"/>
    <circle cx="352" cy="352" r="12"/>
  </g>
  <path d="M296 296l56 56M352 296l-56 56" fill="none" stroke="#1679c5" stroke-width="10" stroke-linecap="round"/>
</svg>
